<?xml version="1.0" standalone="no"?>
<!DOCTYPE svg PUBLIC "-//W3C//DTD SVG 20010904//EN"
 "http://www.w3.org/TR/2001/REC-SVG-20010904/DTD/svg10.dtd">
<svg version="1.0" xmlns="http://www.w3.org/2000/svg"
 width="500.000000pt" height="500.000000pt" viewBox="0 0 500.000000 500.000000"
 preserveAspectRatio="xMidYMid meet">

<g transform="translate(0.000000,500.000000) scale(0.100000,-0.100000)"
fill="#000000" stroke="none">
<path d="M2310 3856 c-79 -18 -158 -45 -215 -74 -129 -64 -274 -190 -355 -307
-50 -73 -108 -204 -130 -296 -25 -105 -28 -321 -5 -417 84 -356 361 -626 714
-697 127 -26 327 -17 441 20 311 100 531 327 620 636 28 95 37 280 21 385 -56
346 -313 636 -653 735 -91 27 -350 36 -438 15z m352 -30 c516 -101 831 -622
677 -1121 -160 -522 -747 -775 -1234 -532 -217 108 -388 314 -456 549 -29 101
-37 295 -16 403 68 358 359 645 715 705 78 13 236 11 314 -4z"/>
<path d="M2400 3793 c-201 -26 -375 -116 -512 -262 -145 -155 -214 -317 -225
-531 -21 -402 239 -746 647 -856 80 -21 268 -24 355 -5 261 57 488 239 596
478 74 161 94 382 50 547 -96 362 -408 615 -780 630 -53 2 -112 2 -131 -1z
m295 -97 c361 -96 607 -464 556 -831 -15 -110 -51 -211 -107 -301 -75 -122
-74 -124 -74 98 l0 194 -120 83 -120 82 -128 -79 -127 -79 -3 -332 -2 -331
-70 0 -70 0 0 393 0 394 -97 65 c-54 35 -109 72 -123 81 -24 15 -28 14 -150
-62 l-125 -78 -5 -269 -5 -269 -37 50 c-49 67 -104 179 -124 251 -22 82 -29
255 -15 340 40 230 200 440 415 544 56 27 133 56 171 64 86 19 273 15 360 -8z
m-545 -1016 c0 -214 -4 -390 -8 -390 -13 0 -95 54 -135 89 l-37 33 0 277 0
278 83 51 c45 28 85 51 90 52 4 0 7 -175 7 -390z m638 -82 l-3 -343 -50 -17
c-27 -9 -67 -19 -87 -23 l-38 -7 0 314 0 315 83 51 c45 28 85 51 90 52 4 0 6
-154 5 -342z"/>
<path d="M2452 3471 l-172 -106 0 -121 c0 -118 1 -122 25 -138 13 -9 27 -16
30 -16 3 0 5 56 5 124 l0 124 113 70 112 70 3 -289 c1 -159 5 -289 7 -289 3 0
59 34 125 75 66 41 123 75 127 75 5 0 28 -14 53 -30 25 -16 48 -30 53 -30 4 0
7 85 7 188 l0 189 -158 105 -159 106 -171 -107z"/>
<path d="M1520 1655 l0 -145 25 0 c24 0 24 1 27 98 l3 97 74 -97 c57 -76 79
-98 97 -98 l24 0 0 145 0 145 -25 0 c-24 0 -24 -1 -27 -97 l-3 -97 -73 97
c-57 77 -77 97 -97 97 l-25 0 0 -145z"/>
<path d="M2260 1655 l0 -145 105 0 105 0 0 25 c0 25 -1 25 -80 25 l-80 0 0 35
0 35 70 0 c68 0 70 1 70 25 0 24 -2 25 -70 25 l-70 0 0 35 0 35 80 0 c79 0 80
0 80 25 l0 25 -105 0 -105 0 0 -145z"/>
<path d="M2090 1750 c0 -20 -5 -30 -15 -30 -8 0 -15 -9 -15 -20 0 -11 7 -20
15 -20 12 0 15 -14 15 -63 0 -77 17 -107 63 -107 18 0 38 4 46 9 21 13 5 41
-24 41 -24 0 -25 2 -25 60 l0 60 30 0 c23 0 30 4 30 20 0 16 -7 20 -30 20 -27
0 -30 3 -30 30 0 27 -3 30 -30 30 -27 0 -30 -3 -30 -30z"/>
<path d="M2730 1750 c0 -20 -5 -30 -15 -30 -8 0 -15 -9 -15 -20 0 -11 7 -20
15 -20 12 0 15 -14 15 -63 0 -77 17 -107 63 -107 18 0 38 4 46 9 21 13 5 41
-24 41 -24 0 -25 2 -25 60 l0 60 30 0 c23 0 30 4 30 20 0 16 -7 20 -30 20 -27
0 -30 3 -30 30 0 27 -3 30 -30 30 -27 0 -30 -3 -30 -30z"/>
<path d="M3140 1750 c0 -20 -5 -30 -15 -30 -8 0 -15 -9 -15 -20 0 -11 6 -20
14 -20 9 0 15 -20 18 -72 6 -82 21 -101 78 -96 27 2 35 7 35 23 0 14 -8 21
-27 23 -27 3 -28 5 -28 63 0 59 0 59 30 59 23 0 30 4 30 20 0 16 -7 20 -30 20
-27 0 -30 3 -30 30 0 27 -3 30 -30 30 -27 0 -30 -3 -30 -30z"/>
<path d="M1858 1701 c-29 -26 -33 -35 -33 -81 0 -46 4 -55 33 -81 25 -23 42
-29 76 -29 52 0 99 30 79 51 -10 10 -18 10 -38 1 -14 -7 -34 -12 -44 -12 -17
0 -51 29 -51 43 0 4 36 7 80 7 71 0 80 2 80 19 0 98 -109 147 -182 82z m114
-28 c29 -26 21 -33 -37 -33 -41 0 -55 4 -55 15 0 33 62 46 92 18z"/>
<path d="M2536 1709 c-46 -36 -26 -87 43 -108 30 -8 41 -17 41 -31 0 -23 -34
-27 -75 -8 -22 10 -28 9 -35 -3 -14 -22 12 -41 64 -46 111 -13 144 94 39 127
-49 16 -60 27 -45 42 9 9 22 9 52 2 33 -9 40 -8 45 5 16 41 -83 56 -129 20z"/>
<path d="M2918 1718 c-30 -10 -32 -15 -20 -36 7 -9 16 -10 41 -1 38 13 81 -1
81 -26 0 -11 -12 -15 -48 -15 -63 0 -92 -21 -92 -65 0 -54 66 -84 121 -55 13
7 19 7 19 0 0 -5 14 -10 30 -10 l30 0 0 63 c0 78 -15 134 -40 147 -23 12 -86
12 -122 -2z m102 -127 c0 -26 -24 -43 -57 -39 -18 2 -29 10 -31 22 -5 24 14
36 56 36 25 0 32 -4 32 -19z"/>
<path d="M3338 1714 c-36 -19 -48 -43 -48 -98 0 -62 30 -96 91 -103 60 -7 120
20 97 43 -12 12 -20 13 -41 3 -32 -15 -73 -5 -87 21 -10 19 -7 20 70 20 l80 0
0 36 c0 75 -89 118 -162 78z m93 -34 c10 -6 19 -17 19 -25 0 -11 -13 -15 -55
-15 -59 0 -64 4 -38 32 18 20 45 23 74 8z"/>
<path d="M2772 1278 c-1 -48 1 -89 6 -91 4 -3 6 23 4 56 -5 111 -9 124 -10 35z"/>
<path d="M1602 1263 c1 -49 3 -71 5 -51 4 31 8 37 31 41 l27 4 -27 2 c-26 1
-28 4 -28 41 0 39 1 40 35 40 48 0 68 -46 31 -73 -7 -6 -6 -7 3 -5 23 6 31 43
15 67 -11 15 -26 21 -55 21 l-39 0 2 -87z"/>
<path d="M2512 1338 c-25 -25 -14 -54 31 -74 33 -15 42 -24 42 -44 0 -20 -6
-26 -28 -28 -17 -2 -37 4 -48 14 -10 9 -19 12 -19 6 0 -15 33 -32 62 -32 30 0
48 18 48 47 0 19 -10 28 -46 43 -37 16 -45 24 -42 42 4 30 56 38 75 12 7 -10
13 -13 13 -8 0 18 -24 34 -50 34 -14 0 -31 -5 -38 -12z"/>
<path d="M2269 1321 c-9 -25 6 -135 19 -137 7 -1 8 0 2 3 -5 2 -10 29 -10 59
0 44 3 54 18 55 13 0 14 2 2 6 -8 3 -18 10 -21 16 -4 5 -8 5 -10 -2z"/>
<path d="M2952 1313 c-8 -8 -9 -13 -2 -13 6 0 10 -25 10 -60 0 -51 3 -60 18
-59 10 0 12 3 5 6 -15 5 -18 109 -4 115 5 2 4 8 -3 14 -8 8 -15 7 -24 -3z"/>
<path d="M1732 1240 l2 -65 3 55 c3 35 10 59 20 67 13 10 13 12 -6 10 -19 -1
-21 -7 -19 -67z"/>
<path d="M1806 1294 c-31 -31 -12 -114 27 -114 6 0 1 7 -11 16 -15 10 -22 25
-22 48 0 39 15 56 52 56 53 0 65 -90 15 -110 -16 -6 -18 -9 -5 -9 20 -1 48 36
48 64 0 55 -67 86 -104 49z"/>
<path d="M1932 1220 c0 -64 3 -82 7 -55 4 26 9 35 14 28 5 -7 12 -13 18 -13 5
0 0 9 -11 20 -35 35 -19 100 23 100 32 0 47 -18 47 -56 0 -23 -7 -38 -22 -48
-12 -9 -17 -16 -11 -16 39 0 61 81 31 118 -13 15 -64 16 -74 1 -4 -8 -9 -7
-15 2 -5 8 -8 -25 -7 -81z"/>
<path d="M2076 1288 c-21 -30 -20 -71 2 -91 26 -24 36 -21 12 3 -31 31 -24 40
30 40 53 0 61 10 40 51 -15 27 -64 25 -84 -3z m78 -4 c11 -29 6 -34 -39 -34
-49 0 -50 1 -35 31 13 24 65 26 74 3z"/>
<path d="M2202 1240 c1 -42 3 -51 5 -25 5 65 12 83 31 88 9 3 5 4 -10 4 -28
-1 -28 -2 -26 -67z"/>
<path d="M2321 1300 c0 -8 9 -33 20 -55 10 -22 16 -29 13 -16 -10 37 -33 88
-33 71z"/>
<path d="M2395 1255 c-10 -30 -22 -55 -27 -55 -4 0 -8 -11 -8 -25 0 -13 -8
-29 -17 -34 -10 -6 -13 -11 -7 -11 6 0 16 6 21 13 15 18 67 156 62 162 -3 2
-13 -20 -24 -50z"/>
<path d="M2639 1294 c-29 -35 -8 -115 30 -113 11 0 10 3 -5 9 -35 14 -41 81
-10 102 18 13 53 9 66 -7 20 -24 15 -67 -10 -87 -22 -18 -17 -25 7 -10 32 20
32 94 0 114 -21 13 -64 9 -78 -8z"/>
<path d="M2910 1276 c0 -59 -16 -88 -47 -84 -19 2 -29 11 -35 28 -6 23 -7 23
-5 -5 2 -25 7 -31 30 -33 16 -2 34 2 42 8 10 8 14 8 18 -2 3 -7 6 17 6 55 1
37 -1 67 -4 67 -3 0 -5 -15 -5 -34z"/>
<path d="M3066 1288 c-33 -46 -7 -108 44 -108 38 0 60 24 60 64 0 61 -72 91
-104 44z m82 0 c17 -17 15 -73 -2 -87 -8 -7 -27 -11 -43 -9 -59 7 -55 108 5
108 15 0 33 -5 40 -12z"/>
<path d="M3201 1245 l2 -70 7 60 c4 33 3 64 -2 70 -4 5 -7 -22 -7 -60z"/>
<path d="M3252 1303 c30 -5 35 -16 41 -88 3 -38 4 -38 5 8 3 63 -11 87 -46 86
l-27 -2 27 -4z"/>
<path d="M3337 1304 c-10 -10 -9 -42 2 -48 4 -3 6 6 3 19 -4 21 0 25 20 25 13
0 30 -6 37 -12 11 -11 13 -10 9 2 -5 16 -59 26 -71 14z"/>
<path d="M3378 1240 c22 -10 30 -44 12 -53 -6 -3 -5 -4 2 -3 33 7 13 67 -21
65 -11 0 -9 -3 7 -9z"/>
<path d="M2153 1206 c-4 -7 -15 -16 -23 -19 -12 -4 -12 -6 2 -6 10 -1 22 8 28
19 12 22 6 28 -7 6z"/>
<path d="M3330 1203 c6 -13 18 -23 28 -22 14 0 14 2 2 6 -8 4 -21 13 -28 22
-11 14 -11 13 -2 -6z"/>
</g>
</svg>
